<mxfile host="app.diagrams.net" modified="2024-07-13T08:08:45.865Z" agent="Mozilla/5.0 (Windows NT 10.0; Win64; x64) AppleWebKit/537.36 (KHTML, like Gecko) Chrome/126.0.0.0 Safari/537.36" etag="jZRDDSbNrm-sHUKZRI00" version="24.6.5" type="device">
  <diagram name="Сторінка-1" id="9cqBMEPmSnzZPXW1-ore">
    <mxGraphModel dx="3336" dy="718" grid="1" gridSize="10" guides="1" tooltips="1" connect="1" arrows="1" fold="1" page="1" pageScale="1" pageWidth="2500" pageHeight="2500" math="0" shadow="0">
      <root>
        <mxCell id="0" />
        <mxCell id="1" parent="0" />
        <mxCell id="8jgLGCSMLhs6Hnrkkaej-15" value="" style="shape=flexArrow;endArrow=classic;html=1;rounded=0;entryX=0.75;entryY=1;entryDx=0;entryDy=0;exitX=0.75;exitY=0;exitDx=0;exitDy=0;" parent="1" source="8jgLGCSMLhs6Hnrkkaej-1" target="8jgLGCSMLhs6Hnrkkaej-2" edge="1">
          <mxGeometry width="50" height="50" relative="1" as="geometry">
            <mxPoint x="2160" y="660" as="sourcePoint" />
            <mxPoint x="2210" y="610" as="targetPoint" />
          </mxGeometry>
        </mxCell>
        <mxCell id="8jgLGCSMLhs6Hnrkkaej-13" value="" style="shape=flexArrow;endArrow=classic;html=1;rounded=0;exitX=0.25;exitY=1;exitDx=0;exitDy=0;entryX=0.25;entryY=0;entryDx=0;entryDy=0;" parent="1" source="8jgLGCSMLhs6Hnrkkaej-2" target="8jgLGCSMLhs6Hnrkkaej-1" edge="1">
          <mxGeometry width="50" height="50" relative="1" as="geometry">
            <mxPoint x="2070" y="550" as="sourcePoint" />
            <mxPoint x="2070" y="640" as="targetPoint" />
          </mxGeometry>
        </mxCell>
        <mxCell id="C68qKwHwsXGBp4Cl6X2V-1" value="Trigger&lt;br&gt;(btn click,&lt;br&gt;double click)" style="whiteSpace=wrap;html=1;aspect=fixed;" parent="1" vertex="1">
          <mxGeometry x="220" y="160" width="80" height="80" as="geometry" />
        </mxCell>
        <mxCell id="C68qKwHwsXGBp4Cl6X2V-9" style="edgeStyle=orthogonalEdgeStyle;rounded=0;orthogonalLoop=1;jettySize=auto;html=1;exitX=1;exitY=0.5;exitDx=0;exitDy=0;entryX=0;entryY=0.5;entryDx=0;entryDy=0;" parent="1" source="C68qKwHwsXGBp4Cl6X2V-4" target="C68qKwHwsXGBp4Cl6X2V-8" edge="1">
          <mxGeometry relative="1" as="geometry" />
        </mxCell>
        <mxCell id="C68qKwHwsXGBp4Cl6X2V-4" value="addItemFromArsenal" style="rounded=0;whiteSpace=wrap;html=1;" parent="1" vertex="1">
          <mxGeometry x="390" y="170" width="120" height="60" as="geometry" />
        </mxCell>
        <mxCell id="C68qKwHwsXGBp4Cl6X2V-5" style="edgeStyle=orthogonalEdgeStyle;rounded=0;orthogonalLoop=1;jettySize=auto;html=1;exitX=1;exitY=0.5;exitDx=0;exitDy=0;entryX=-0.05;entryY=0.483;entryDx=0;entryDy=0;entryPerimeter=0;" parent="1" source="C68qKwHwsXGBp4Cl6X2V-1" target="C68qKwHwsXGBp4Cl6X2V-4" edge="1">
          <mxGeometry relative="1" as="geometry" />
        </mxCell>
        <mxCell id="C68qKwHwsXGBp4Cl6X2V-6" value="" style="shape=flexArrow;endArrow=classic;html=1;rounded=0;exitX=0.5;exitY=1;exitDx=0;exitDy=0;" parent="1" source="C68qKwHwsXGBp4Cl6X2V-4" edge="1">
          <mxGeometry width="50" height="50" relative="1" as="geometry">
            <mxPoint x="410" y="340" as="sourcePoint" />
            <mxPoint x="450" y="280" as="targetPoint" />
          </mxGeometry>
        </mxCell>
        <mxCell id="C68qKwHwsXGBp4Cl6X2V-7" value="collect data of item from arsenal tree" style="rounded=0;whiteSpace=wrap;html=1;" parent="1" vertex="1">
          <mxGeometry x="390" y="280" width="120" height="60" as="geometry" />
        </mxCell>
        <mxCell id="C68qKwHwsXGBp4Cl6X2V-13" style="edgeStyle=orthogonalEdgeStyle;rounded=0;orthogonalLoop=1;jettySize=auto;html=1;exitX=1;exitY=0.5;exitDx=0;exitDy=0;" parent="1" source="C68qKwHwsXGBp4Cl6X2V-8" target="C68qKwHwsXGBp4Cl6X2V-12" edge="1">
          <mxGeometry relative="1" as="geometry" />
        </mxCell>
        <mxCell id="C68qKwHwsXGBp4Cl6X2V-8" value="addItemMiddleware" style="rounded=0;whiteSpace=wrap;html=1;" parent="1" vertex="1">
          <mxGeometry x="600" y="170" width="120" height="60" as="geometry" />
        </mxCell>
        <mxCell id="C68qKwHwsXGBp4Cl6X2V-35" style="edgeStyle=orthogonalEdgeStyle;rounded=0;orthogonalLoop=1;jettySize=auto;html=1;exitX=0.5;exitY=1;exitDx=0;exitDy=0;" parent="1" source="C68qKwHwsXGBp4Cl6X2V-10" target="C68qKwHwsXGBp4Cl6X2V-29" edge="1">
          <mxGeometry relative="1" as="geometry" />
        </mxCell>
        <mxCell id="C68qKwHwsXGBp4Cl6X2V-36" style="edgeStyle=orthogonalEdgeStyle;rounded=0;orthogonalLoop=1;jettySize=auto;html=1;exitX=0.5;exitY=1;exitDx=0;exitDy=0;entryX=0.5;entryY=0;entryDx=0;entryDy=0;" parent="1" source="C68qKwHwsXGBp4Cl6X2V-10" target="C68qKwHwsXGBp4Cl6X2V-32" edge="1">
          <mxGeometry relative="1" as="geometry" />
        </mxCell>
        <mxCell id="C68qKwHwsXGBp4Cl6X2V-10" value="&lt;br&gt;get categories,&lt;br&gt;get amount,&lt;br&gt;form tree path&lt;div&gt;&lt;br&gt;&lt;/div&gt;" style="rounded=0;whiteSpace=wrap;html=1;" parent="1" vertex="1">
          <mxGeometry x="600" y="280" width="120" height="60" as="geometry" />
        </mxCell>
        <mxCell id="C68qKwHwsXGBp4Cl6X2V-11" value="" style="shape=flexArrow;endArrow=classic;html=1;rounded=0;exitX=0.5;exitY=1;exitDx=0;exitDy=0;" parent="1" edge="1">
          <mxGeometry width="50" height="50" relative="1" as="geometry">
            <mxPoint x="659.5" y="230" as="sourcePoint" />
            <mxPoint x="659.5" y="280" as="targetPoint" />
          </mxGeometry>
        </mxCell>
        <mxCell id="C68qKwHwsXGBp4Cl6X2V-24" value="" style="edgeStyle=orthogonalEdgeStyle;rounded=0;orthogonalLoop=1;jettySize=auto;html=1;" parent="1" source="C68qKwHwsXGBp4Cl6X2V-12" target="C68qKwHwsXGBp4Cl6X2V-23" edge="1">
          <mxGeometry relative="1" as="geometry" />
        </mxCell>
        <mxCell id="C68qKwHwsXGBp4Cl6X2V-27" value="" style="edgeStyle=orthogonalEdgeStyle;rounded=0;orthogonalLoop=1;jettySize=auto;html=1;" parent="1" source="C68qKwHwsXGBp4Cl6X2V-12" target="C68qKwHwsXGBp4Cl6X2V-26" edge="1">
          <mxGeometry relative="1" as="geometry" />
        </mxCell>
        <mxCell id="C68qKwHwsXGBp4Cl6X2V-12" value="&lt;div style=&quot;font-family: Consolas, &amp;quot;Courier New&amp;quot;, monospace; font-size: 14px; line-height: 19px; white-space: pre;&quot;&gt;&lt;span style=&quot;background-color: rgb(255, 255, 255);&quot;&gt;peekItem&lt;/span&gt;&lt;/div&gt;" style="rounded=0;whiteSpace=wrap;html=1;" parent="1" vertex="1">
          <mxGeometry x="810" y="170" width="120" height="60" as="geometry" />
        </mxCell>
        <mxCell id="C68qKwHwsXGBp4Cl6X2V-15" value="" style="shape=flexArrow;endArrow=classic;html=1;rounded=0;exitX=0.5;exitY=1;exitDx=0;exitDy=0;" parent="1" edge="1">
          <mxGeometry width="50" height="50" relative="1" as="geometry">
            <mxPoint x="869.5" y="230" as="sourcePoint" />
            <mxPoint x="869.5" y="280" as="targetPoint" />
          </mxGeometry>
        </mxCell>
        <mxCell id="C68qKwHwsXGBp4Cl6X2V-16" value="detects if item is in tree already or its new" style="rounded=0;whiteSpace=wrap;html=1;" parent="1" vertex="1">
          <mxGeometry x="810" y="280" width="120" height="60" as="geometry" />
        </mxCell>
        <mxCell id="C68qKwHwsXGBp4Cl6X2V-17" value="prepares data" style="rounded=0;whiteSpace=wrap;html=1;" parent="1" vertex="1">
          <mxGeometry x="390" y="120" width="120" height="30" as="geometry" />
        </mxCell>
        <mxCell id="C68qKwHwsXGBp4Cl6X2V-18" value="prepares data" style="rounded=0;whiteSpace=wrap;html=1;" parent="1" vertex="1">
          <mxGeometry x="600" y="120" width="120" height="30" as="geometry" />
        </mxCell>
        <mxCell id="C68qKwHwsXGBp4Cl6X2V-19" value="" style="endArrow=none;dashed=1;html=1;rounded=0;entryX=0.5;entryY=1;entryDx=0;entryDy=0;exitX=0.5;exitY=0;exitDx=0;exitDy=0;" parent="1" source="C68qKwHwsXGBp4Cl6X2V-4" target="C68qKwHwsXGBp4Cl6X2V-17" edge="1">
          <mxGeometry width="50" height="50" relative="1" as="geometry">
            <mxPoint x="310" y="320" as="sourcePoint" />
            <mxPoint x="360" y="270" as="targetPoint" />
          </mxGeometry>
        </mxCell>
        <mxCell id="C68qKwHwsXGBp4Cl6X2V-20" value="" style="endArrow=none;dashed=1;html=1;rounded=0;entryX=0.5;entryY=1;entryDx=0;entryDy=0;exitX=0.5;exitY=0;exitDx=0;exitDy=0;" parent="1" source="C68qKwHwsXGBp4Cl6X2V-8" target="C68qKwHwsXGBp4Cl6X2V-18" edge="1">
          <mxGeometry width="50" height="50" relative="1" as="geometry">
            <mxPoint x="460" y="180" as="sourcePoint" />
            <mxPoint x="460" y="160" as="targetPoint" />
          </mxGeometry>
        </mxCell>
        <mxCell id="C68qKwHwsXGBp4Cl6X2V-21" value="transfers data" style="rounded=0;whiteSpace=wrap;html=1;" parent="1" vertex="1">
          <mxGeometry x="810" y="120" width="120" height="30" as="geometry" />
        </mxCell>
        <mxCell id="C68qKwHwsXGBp4Cl6X2V-22" value="" style="endArrow=none;dashed=1;html=1;rounded=0;exitX=0.5;exitY=0;exitDx=0;exitDy=0;entryX=0.5;entryY=1;entryDx=0;entryDy=0;" parent="1" source="C68qKwHwsXGBp4Cl6X2V-12" target="C68qKwHwsXGBp4Cl6X2V-21" edge="1">
          <mxGeometry width="50" height="50" relative="1" as="geometry">
            <mxPoint x="670" y="180" as="sourcePoint" />
            <mxPoint x="680" y="160" as="targetPoint" />
          </mxGeometry>
        </mxCell>
        <mxCell id="C68qKwHwsXGBp4Cl6X2V-23" value="modifyItem" style="whiteSpace=wrap;html=1;rounded=0;" parent="1" vertex="1">
          <mxGeometry x="1040" y="120" width="120" height="60" as="geometry" />
        </mxCell>
        <mxCell id="C68qKwHwsXGBp4Cl6X2V-26" value="addItemToModule" style="whiteSpace=wrap;html=1;rounded=0;" parent="1" vertex="1">
          <mxGeometry x="1040" y="220" width="120" height="60" as="geometry" />
        </mxCell>
        <mxCell id="C68qKwHwsXGBp4Cl6X2V-28" value="works with data" style="rounded=0;whiteSpace=wrap;html=1;" parent="1" vertex="1">
          <mxGeometry x="1040" y="60" width="120" height="30" as="geometry" />
        </mxCell>
        <mxCell id="C68qKwHwsXGBp4Cl6X2V-34" style="edgeStyle=orthogonalEdgeStyle;rounded=0;orthogonalLoop=1;jettySize=auto;html=1;exitX=0.5;exitY=1;exitDx=0;exitDy=0;entryX=0.5;entryY=0;entryDx=0;entryDy=0;" parent="1" source="C68qKwHwsXGBp4Cl6X2V-29" target="C68qKwHwsXGBp4Cl6X2V-30" edge="1">
          <mxGeometry relative="1" as="geometry" />
        </mxCell>
        <mxCell id="C68qKwHwsXGBp4Cl6X2V-29" value="checkCategories" style="rounded=0;whiteSpace=wrap;html=1;" parent="1" vertex="1">
          <mxGeometry x="525" y="390" width="110" height="30" as="geometry" />
        </mxCell>
        <mxCell id="C68qKwHwsXGBp4Cl6X2V-30" value="getAmountIfStack" style="rounded=0;whiteSpace=wrap;html=1;" parent="1" vertex="1">
          <mxGeometry x="525" y="450" width="110" height="30" as="geometry" />
        </mxCell>
        <mxCell id="C68qKwHwsXGBp4Cl6X2V-31" value="itemDestination" style="rounded=0;whiteSpace=wrap;html=1;" parent="1" vertex="1">
          <mxGeometry x="685" y="450" width="110" height="30" as="geometry" />
        </mxCell>
        <mxCell id="C68qKwHwsXGBp4Cl6X2V-33" style="edgeStyle=orthogonalEdgeStyle;rounded=0;orthogonalLoop=1;jettySize=auto;html=1;exitX=0.5;exitY=1;exitDx=0;exitDy=0;entryX=0.5;entryY=0;entryDx=0;entryDy=0;" parent="1" source="C68qKwHwsXGBp4Cl6X2V-32" target="C68qKwHwsXGBp4Cl6X2V-31" edge="1">
          <mxGeometry relative="1" as="geometry" />
        </mxCell>
        <mxCell id="C68qKwHwsXGBp4Cl6X2V-32" value="getItemTypeFunc" style="rounded=0;whiteSpace=wrap;html=1;" parent="1" vertex="1">
          <mxGeometry x="685" y="390" width="110" height="30" as="geometry" />
        </mxCell>
        <mxCell id="cnQpZf5OVqEPlhCesiCm-5" value="Add Item" style="swimlane;whiteSpace=wrap;html=1;" parent="1" vertex="1">
          <mxGeometry x="180" y="20" width="1030" height="500" as="geometry" />
        </mxCell>
        <mxCell id="cnQpZf5OVqEPlhCesiCm-6" value="Vertical Container" style="swimlane;whiteSpace=wrap;html=1;" parent="1" vertex="1">
          <mxGeometry x="-970" y="560" width="1920" height="630" as="geometry" />
        </mxCell>
        <mxCell id="cnQpZf5OVqEPlhCesiCm-7" value="fn_saveModule" style="rounded=0;whiteSpace=wrap;html=1;" parent="cnQpZf5OVqEPlhCesiCm-6" vertex="1">
          <mxGeometry x="810" y="40" width="110" height="40" as="geometry" />
        </mxCell>
        <mxCell id="cnQpZf5OVqEPlhCesiCm-8" value="fn_deleteModule" style="rounded=0;whiteSpace=wrap;html=1;" parent="cnQpZf5OVqEPlhCesiCm-6" vertex="1">
          <mxGeometry x="620" y="100" width="110" height="40" as="geometry" />
        </mxCell>
        <mxCell id="cnQpZf5OVqEPlhCesiCm-9" value="fn_parseModuleItemsTree" style="rounded=0;whiteSpace=wrap;html=1;" parent="cnQpZf5OVqEPlhCesiCm-6" vertex="1">
          <mxGeometry x="1115" y="90" width="160" height="40" as="geometry" />
        </mxCell>
        <mxCell id="cnQpZf5OVqEPlhCesiCm-27" style="edgeStyle=orthogonalEdgeStyle;rounded=0;orthogonalLoop=1;jettySize=auto;html=1;entryX=0.5;entryY=0;entryDx=0;entryDy=0;" parent="cnQpZf5OVqEPlhCesiCm-6" source="cnQpZf5OVqEPlhCesiCm-10" target="cnQpZf5OVqEPlhCesiCm-21" edge="1">
          <mxGeometry relative="1" as="geometry" />
        </mxCell>
        <mxCell id="cnQpZf5OVqEPlhCesiCm-10" value="fn_saveToModulesStorage" style="rounded=0;whiteSpace=wrap;html=1;" parent="cnQpZf5OVqEPlhCesiCm-6" vertex="1">
          <mxGeometry x="1110" y="160" width="170" height="40" as="geometry" />
        </mxCell>
        <mxCell id="cnQpZf5OVqEPlhCesiCm-37" style="edgeStyle=orthogonalEdgeStyle;rounded=0;orthogonalLoop=1;jettySize=auto;html=1;entryX=0.5;entryY=0;entryDx=0;entryDy=0;" parent="cnQpZf5OVqEPlhCesiCm-6" source="cnQpZf5OVqEPlhCesiCm-11" target="cnQpZf5OVqEPlhCesiCm-25" edge="1">
          <mxGeometry relative="1" as="geometry">
            <Array as="points">
              <mxPoint x="945" y="390" />
            </Array>
          </mxGeometry>
        </mxCell>
        <mxCell id="cnQpZf5OVqEPlhCesiCm-11" value="fn_loadModulesTree" style="rounded=0;whiteSpace=wrap;html=1;" parent="cnQpZf5OVqEPlhCesiCm-6" vertex="1">
          <mxGeometry x="802.5" y="370" width="125" height="40" as="geometry" />
        </mxCell>
        <mxCell id="cnQpZf5OVqEPlhCesiCm-12" value="" style="endArrow=none;dashed=1;html=1;dashPattern=1 3;strokeWidth=2;rounded=0;entryX=0;entryY=0.5;entryDx=0;entryDy=0;exitX=0.5;exitY=0;exitDx=0;exitDy=0;" parent="cnQpZf5OVqEPlhCesiCm-6" source="cnQpZf5OVqEPlhCesiCm-8" target="cnQpZf5OVqEPlhCesiCm-7" edge="1">
          <mxGeometry width="50" height="50" relative="1" as="geometry">
            <mxPoint x="710" y="90" as="sourcePoint" />
            <mxPoint x="760" y="40" as="targetPoint" />
          </mxGeometry>
        </mxCell>
        <mxCell id="cnQpZf5OVqEPlhCesiCm-13" value="" style="endArrow=none;dashed=1;html=1;dashPattern=1 3;strokeWidth=2;rounded=0;entryX=1;entryY=0.5;entryDx=0;entryDy=0;exitX=0;exitY=0.5;exitDx=0;exitDy=0;" parent="cnQpZf5OVqEPlhCesiCm-6" source="cnQpZf5OVqEPlhCesiCm-9" target="cnQpZf5OVqEPlhCesiCm-7" edge="1">
          <mxGeometry width="50" height="50" relative="1" as="geometry">
            <mxPoint x="1120" y="110" as="sourcePoint" />
            <mxPoint x="1170" y="60" as="targetPoint" />
          </mxGeometry>
        </mxCell>
        <mxCell id="cnQpZf5OVqEPlhCesiCm-14" value="" style="shape=flexArrow;endArrow=classic;html=1;rounded=0;exitX=0.5;exitY=1;exitDx=0;exitDy=0;entryX=0.5;entryY=0;entryDx=0;entryDy=0;" parent="cnQpZf5OVqEPlhCesiCm-6" source="cnQpZf5OVqEPlhCesiCm-9" target="cnQpZf5OVqEPlhCesiCm-10" edge="1">
          <mxGeometry width="50" height="50" relative="1" as="geometry">
            <mxPoint x="1025" y="270" as="sourcePoint" />
            <mxPoint x="1235" y="230" as="targetPoint" />
          </mxGeometry>
        </mxCell>
        <mxCell id="cnQpZf5OVqEPlhCesiCm-18" value="" style="endArrow=none;dashed=1;html=1;dashPattern=1 3;strokeWidth=2;rounded=0;entryX=1;entryY=0.5;entryDx=0;entryDy=0;exitX=0;exitY=0.5;exitDx=0;exitDy=0;" parent="cnQpZf5OVqEPlhCesiCm-6" source="cnQpZf5OVqEPlhCesiCm-10" target="cnQpZf5OVqEPlhCesiCm-7" edge="1">
          <mxGeometry width="50" height="50" relative="1" as="geometry">
            <mxPoint x="940" y="170" as="sourcePoint" />
            <mxPoint x="990" y="120" as="targetPoint" />
          </mxGeometry>
        </mxCell>
        <mxCell id="cnQpZf5OVqEPlhCesiCm-19" value="" style="endArrow=none;dashed=1;html=1;dashPattern=1 3;strokeWidth=2;rounded=0;entryX=0.5;entryY=1;entryDx=0;entryDy=0;exitX=0.5;exitY=0;exitDx=0;exitDy=0;" parent="cnQpZf5OVqEPlhCesiCm-6" source="cnQpZf5OVqEPlhCesiCm-11" target="cnQpZf5OVqEPlhCesiCm-7" edge="1">
          <mxGeometry width="50" height="50" relative="1" as="geometry">
            <mxPoint x="800" y="260" as="sourcePoint" />
            <mxPoint x="850" y="210" as="targetPoint" />
          </mxGeometry>
        </mxCell>
        <mxCell id="cnQpZf5OVqEPlhCesiCm-20" value="fn_getModulesStorage" style="rounded=0;whiteSpace=wrap;html=1;fillColor=#dae8fc;strokeColor=#6c8ebf;" parent="cnQpZf5OVqEPlhCesiCm-6" vertex="1">
          <mxGeometry x="1130" y="240" width="130" height="40" as="geometry" />
        </mxCell>
        <mxCell id="cnQpZf5OVqEPlhCesiCm-21" value="fn_setStorage" style="rounded=0;whiteSpace=wrap;html=1;fillColor=#d5e8d4;strokeColor=#82b366;" parent="cnQpZf5OVqEPlhCesiCm-6" vertex="1">
          <mxGeometry x="1295" y="240" width="100" height="40" as="geometry" />
        </mxCell>
        <mxCell id="cnQpZf5OVqEPlhCesiCm-24" value="" style="endArrow=none;dashed=1;html=1;dashPattern=1 3;strokeWidth=2;rounded=0;entryX=0.5;entryY=1;entryDx=0;entryDy=0;exitX=0.5;exitY=0;exitDx=0;exitDy=0;" parent="cnQpZf5OVqEPlhCesiCm-6" source="cnQpZf5OVqEPlhCesiCm-20" target="cnQpZf5OVqEPlhCesiCm-10" edge="1">
          <mxGeometry width="50" height="50" relative="1" as="geometry">
            <mxPoint x="1155" y="410" as="sourcePoint" />
            <mxPoint x="1205" y="360" as="targetPoint" />
          </mxGeometry>
        </mxCell>
        <mxCell id="cnQpZf5OVqEPlhCesiCm-25" value="fn_addItemToTree&lt;br&gt;Many times" style="rounded=0;whiteSpace=wrap;html=1;" parent="cnQpZf5OVqEPlhCesiCm-6" vertex="1">
          <mxGeometry x="885" y="445" width="120" height="50" as="geometry" />
        </mxCell>
        <mxCell id="cnQpZf5OVqEPlhCesiCm-26" value="" style="shape=flexArrow;endArrow=classic;html=1;rounded=0;exitX=1;exitY=0.5;exitDx=0;exitDy=0;entryX=0;entryY=0.5;entryDx=0;entryDy=0;" parent="cnQpZf5OVqEPlhCesiCm-6" source="cnQpZf5OVqEPlhCesiCm-20" target="cnQpZf5OVqEPlhCesiCm-21" edge="1">
          <mxGeometry width="50" height="50" relative="1" as="geometry">
            <mxPoint x="1245" y="370" as="sourcePoint" />
            <mxPoint x="1295" y="320" as="targetPoint" />
          </mxGeometry>
        </mxCell>
        <mxCell id="cnQpZf5OVqEPlhCesiCm-22" value="fn_modulesAmount" style="rounded=0;whiteSpace=wrap;html=1;fillColor=#ffe6cc;strokeColor=#d79b00;" parent="cnQpZf5OVqEPlhCesiCm-6" vertex="1">
          <mxGeometry x="980" y="240" width="120" height="40" as="geometry" />
        </mxCell>
        <mxCell id="cnQpZf5OVqEPlhCesiCm-32" value="" style="endArrow=none;dashed=1;html=1;dashPattern=1 3;strokeWidth=2;rounded=0;entryX=0.5;entryY=1;entryDx=0;entryDy=0;exitX=0.5;exitY=0;exitDx=0;exitDy=0;" parent="cnQpZf5OVqEPlhCesiCm-6" source="cnQpZf5OVqEPlhCesiCm-22" target="cnQpZf5OVqEPlhCesiCm-10" edge="1">
          <mxGeometry width="50" height="50" relative="1" as="geometry">
            <mxPoint x="1020" y="370" as="sourcePoint" />
            <mxPoint x="1070" y="320" as="targetPoint" />
          </mxGeometry>
        </mxCell>
        <mxCell id="cnQpZf5OVqEPlhCesiCm-34" value="fn_getModulesStorage" style="rounded=0;whiteSpace=wrap;html=1;fillColor=#dae8fc;strokeColor=#6c8ebf;" parent="cnQpZf5OVqEPlhCesiCm-6" vertex="1">
          <mxGeometry x="710" y="450" width="130" height="40" as="geometry" />
        </mxCell>
        <mxCell id="cnQpZf5OVqEPlhCesiCm-35" value="" style="endArrow=none;dashed=1;html=1;dashPattern=1 3;strokeWidth=2;rounded=0;entryX=0.5;entryY=1;entryDx=0;entryDy=0;exitX=0.5;exitY=0;exitDx=0;exitDy=0;" parent="cnQpZf5OVqEPlhCesiCm-6" source="cnQpZf5OVqEPlhCesiCm-34" target="cnQpZf5OVqEPlhCesiCm-11" edge="1">
          <mxGeometry width="50" height="50" relative="1" as="geometry">
            <mxPoint x="790" y="610" as="sourcePoint" />
            <mxPoint x="840" y="560" as="targetPoint" />
          </mxGeometry>
        </mxCell>
        <mxCell id="cnQpZf5OVqEPlhCesiCm-36" value="" style="shape=flexArrow;endArrow=classic;html=1;rounded=0;exitX=1;exitY=0.5;exitDx=0;exitDy=0;entryX=0;entryY=0.5;entryDx=0;entryDy=0;" parent="cnQpZf5OVqEPlhCesiCm-6" source="cnQpZf5OVqEPlhCesiCm-34" target="cnQpZf5OVqEPlhCesiCm-25" edge="1">
          <mxGeometry width="50" height="50" relative="1" as="geometry">
            <mxPoint x="830" y="585" as="sourcePoint" />
            <mxPoint x="880" y="535" as="targetPoint" />
          </mxGeometry>
        </mxCell>
        <mxCell id="cnQpZf5OVqEPlhCesiCm-38" value="fn_getModulesStorage" style="rounded=0;whiteSpace=wrap;html=1;fillColor=#dae8fc;strokeColor=#6c8ebf;" parent="cnQpZf5OVqEPlhCesiCm-6" vertex="1">
          <mxGeometry x="540" y="180" width="130" height="40" as="geometry" />
        </mxCell>
        <mxCell id="cnQpZf5OVqEPlhCesiCm-39" value="fn_setStorage" style="rounded=0;whiteSpace=wrap;html=1;fillColor=#d5e8d4;strokeColor=#82b366;" parent="cnQpZf5OVqEPlhCesiCm-6" vertex="1">
          <mxGeometry x="710" y="180" width="100" height="40" as="geometry" />
        </mxCell>
        <mxCell id="cnQpZf5OVqEPlhCesiCm-40" value="fn_modulesAmount" style="rounded=0;whiteSpace=wrap;html=1;fillColor=#ffe6cc;strokeColor=#d79b00;" parent="cnQpZf5OVqEPlhCesiCm-6" vertex="1">
          <mxGeometry x="460" y="100" width="120" height="40" as="geometry" />
        </mxCell>
        <mxCell id="cnQpZf5OVqEPlhCesiCm-41" value="" style="shape=flexArrow;endArrow=classic;html=1;rounded=0;exitX=1;exitY=0.5;exitDx=0;exitDy=0;entryX=0;entryY=0.5;entryDx=0;entryDy=0;" parent="cnQpZf5OVqEPlhCesiCm-6" source="cnQpZf5OVqEPlhCesiCm-38" target="cnQpZf5OVqEPlhCesiCm-39" edge="1">
          <mxGeometry width="50" height="50" relative="1" as="geometry">
            <mxPoint x="600" y="310" as="sourcePoint" />
            <mxPoint x="650" y="260" as="targetPoint" />
          </mxGeometry>
        </mxCell>
        <mxCell id="cnQpZf5OVqEPlhCesiCm-42" value="" style="endArrow=none;dashed=1;html=1;dashPattern=1 3;strokeWidth=2;rounded=0;entryX=0;entryY=0.5;entryDx=0;entryDy=0;exitX=1;exitY=0.5;exitDx=0;exitDy=0;" parent="cnQpZf5OVqEPlhCesiCm-6" source="cnQpZf5OVqEPlhCesiCm-40" target="cnQpZf5OVqEPlhCesiCm-8" edge="1">
          <mxGeometry width="50" height="50" relative="1" as="geometry">
            <mxPoint x="590" y="310" as="sourcePoint" />
            <mxPoint x="640" y="260" as="targetPoint" />
          </mxGeometry>
        </mxCell>
        <mxCell id="cnQpZf5OVqEPlhCesiCm-43" value="" style="endArrow=none;dashed=1;html=1;dashPattern=1 3;strokeWidth=2;rounded=0;entryX=0.5;entryY=1;entryDx=0;entryDy=0;exitX=0.5;exitY=0;exitDx=0;exitDy=0;" parent="cnQpZf5OVqEPlhCesiCm-6" source="cnQpZf5OVqEPlhCesiCm-38" target="cnQpZf5OVqEPlhCesiCm-8" edge="1">
          <mxGeometry width="50" height="50" relative="1" as="geometry">
            <mxPoint x="560" y="320" as="sourcePoint" />
            <mxPoint x="610" y="270" as="targetPoint" />
          </mxGeometry>
        </mxCell>
        <mxCell id="cnQpZf5OVqEPlhCesiCm-44" style="edgeStyle=orthogonalEdgeStyle;rounded=0;orthogonalLoop=1;jettySize=auto;html=1;entryX=0.555;entryY=0.008;entryDx=0;entryDy=0;entryPerimeter=0;" parent="cnQpZf5OVqEPlhCesiCm-6" source="cnQpZf5OVqEPlhCesiCm-8" target="cnQpZf5OVqEPlhCesiCm-39" edge="1">
          <mxGeometry relative="1" as="geometry">
            <Array as="points">
              <mxPoint x="766" y="120" />
              <mxPoint x="766" y="160" />
            </Array>
          </mxGeometry>
        </mxCell>
        <mxCell id="8jgLGCSMLhs6Hnrkkaej-1" value="NONE" style="rounded=0;whiteSpace=wrap;html=1;" parent="1" vertex="1">
          <mxGeometry x="2030" y="800" width="120" height="60" as="geometry" />
        </mxCell>
        <mxCell id="8jgLGCSMLhs6Hnrkkaej-2" value="NEW" style="rounded=0;whiteSpace=wrap;html=1;" parent="1" vertex="1">
          <mxGeometry x="2030" y="490" width="120" height="60" as="geometry" />
        </mxCell>
        <mxCell id="8jgLGCSMLhs6Hnrkkaej-3" value="Modifying" style="rounded=0;whiteSpace=wrap;html=1;" parent="1" vertex="1">
          <mxGeometry x="1380" y="645" width="120" height="60" as="geometry" />
        </mxCell>
        <mxCell id="8jgLGCSMLhs6Hnrkkaej-4" value="On open" style="rounded=0;whiteSpace=wrap;html=1;" parent="1" vertex="1">
          <mxGeometry x="2030" y="910" width="120" height="60" as="geometry" />
        </mxCell>
        <mxCell id="8jgLGCSMLhs6Hnrkkaej-5" value="" style="endArrow=classic;html=1;rounded=0;exitX=0.5;exitY=0;exitDx=0;exitDy=0;entryX=0.5;entryY=1;entryDx=0;entryDy=0;" parent="1" source="8jgLGCSMLhs6Hnrkkaej-4" target="8jgLGCSMLhs6Hnrkkaej-1" edge="1">
          <mxGeometry width="50" height="50" relative="1" as="geometry">
            <mxPoint x="1820" y="560" as="sourcePoint" />
            <mxPoint x="1870" y="510" as="targetPoint" />
          </mxGeometry>
        </mxCell>
        <mxCell id="8jgLGCSMLhs6Hnrkkaej-6" value="create new" style="rounded=0;whiteSpace=wrap;html=1;" parent="1" vertex="1">
          <mxGeometry x="2090" y="660" width="70" height="30" as="geometry" />
        </mxCell>
        <mxCell id="8jgLGCSMLhs6Hnrkkaej-10" value="Delete" style="rounded=0;whiteSpace=wrap;html=1;" parent="1" vertex="1">
          <mxGeometry x="2030" y="660" width="50" height="30" as="geometry" />
        </mxCell>
        <mxCell id="8jgLGCSMLhs6Hnrkkaej-12" value="Modifying &quot;name&quot; module" style="text;html=1;align=center;verticalAlign=middle;whiteSpace=wrap;rounded=0;" parent="1" vertex="1">
          <mxGeometry x="1370" y="610" width="140" height="30" as="geometry" />
        </mxCell>
        <mxCell id="8jgLGCSMLhs6Hnrkkaej-23" value="New module" style="text;html=1;align=center;verticalAlign=middle;whiteSpace=wrap;rounded=0;" parent="1" vertex="1">
          <mxGeometry x="2025" y="440" width="130" height="30" as="geometry" />
        </mxCell>
        <mxCell id="8jgLGCSMLhs6Hnrkkaej-24" value="Clear module info&amp;nbsp;" style="text;html=1;align=center;verticalAlign=middle;whiteSpace=wrap;rounded=0;" parent="1" vertex="1">
          <mxGeometry x="2025" y="410" width="130" height="30" as="geometry" />
        </mxCell>
        <mxCell id="8jgLGCSMLhs6Hnrkkaej-45" style="edgeStyle=orthogonalEdgeStyle;rounded=0;orthogonalLoop=1;jettySize=auto;html=1;entryX=1;entryY=0.5;entryDx=0;entryDy=0;" parent="1" source="8jgLGCSMLhs6Hnrkkaej-33" target="8jgLGCSMLhs6Hnrkkaej-43" edge="1">
          <mxGeometry relative="1" as="geometry" />
        </mxCell>
        <mxCell id="8jgLGCSMLhs6Hnrkkaej-33" value="setCurrentModule" style="rounded=0;whiteSpace=wrap;html=1;" parent="1" vertex="1">
          <mxGeometry x="1850" y="660" width="110" height="27.5" as="geometry" />
        </mxCell>
        <mxCell id="8jgLGCSMLhs6Hnrkkaej-35" value="change module" style="rounded=0;whiteSpace=wrap;html=1;" parent="1" vertex="1">
          <mxGeometry x="1530" y="655" width="75" height="40" as="geometry" />
        </mxCell>
        <mxCell id="8jgLGCSMLhs6Hnrkkaej-41" value="" style="shape=flexArrow;endArrow=classic;html=1;rounded=0;entryX=0.5;entryY=0;entryDx=0;entryDy=0;exitX=0;exitY=0.5;exitDx=0;exitDy=0;" parent="1" source="8jgLGCSMLhs6Hnrkkaej-2" target="8jgLGCSMLhs6Hnrkkaej-33" edge="1">
          <mxGeometry width="50" height="50" relative="1" as="geometry">
            <mxPoint x="1880" y="560" as="sourcePoint" />
            <mxPoint x="1930" y="510" as="targetPoint" />
            <Array as="points">
              <mxPoint x="1905" y="520" />
            </Array>
          </mxGeometry>
        </mxCell>
        <mxCell id="8jgLGCSMLhs6Hnrkkaej-42" value="" style="shape=flexArrow;endArrow=classic;html=1;rounded=0;entryX=0.5;entryY=1;entryDx=0;entryDy=0;exitX=0;exitY=0.5;exitDx=0;exitDy=0;" parent="1" source="8jgLGCSMLhs6Hnrkkaej-1" target="8jgLGCSMLhs6Hnrkkaej-33" edge="1">
          <mxGeometry width="50" height="50" relative="1" as="geometry">
            <mxPoint x="1760" y="860" as="sourcePoint" />
            <mxPoint x="1810" y="810" as="targetPoint" />
            <Array as="points">
              <mxPoint x="1905" y="830" />
            </Array>
          </mxGeometry>
        </mxCell>
        <mxCell id="8jgLGCSMLhs6Hnrkkaej-43" value="SaveModule" style="rounded=0;whiteSpace=wrap;html=1;" parent="1" vertex="1">
          <mxGeometry x="1730" y="658.75" width="85" height="30" as="geometry" />
        </mxCell>
        <mxCell id="8jgLGCSMLhs6Hnrkkaej-48" value="Cancel&lt;br&gt;Warning" style="rounded=0;whiteSpace=wrap;html=1;" parent="1" vertex="1">
          <mxGeometry x="1630" y="590" width="73" height="40" as="geometry" />
        </mxCell>
        <mxCell id="8jgLGCSMLhs6Hnrkkaej-50" value="" style="endArrow=classic;html=1;rounded=0;entryX=0.5;entryY=1;entryDx=0;entryDy=0;" parent="1" target="8jgLGCSMLhs6Hnrkkaej-48" edge="1">
          <mxGeometry width="50" height="50" relative="1" as="geometry">
            <mxPoint x="1667" y="674" as="sourcePoint" />
            <mxPoint x="1710" y="780" as="targetPoint" />
          </mxGeometry>
        </mxCell>
        <mxCell id="8jgLGCSMLhs6Hnrkkaej-51" value="" style="endArrow=classic;html=1;rounded=0;entryX=1;entryY=0.5;entryDx=0;entryDy=0;exitX=0;exitY=0.5;exitDx=0;exitDy=0;" parent="1" source="8jgLGCSMLhs6Hnrkkaej-43" target="8jgLGCSMLhs6Hnrkkaej-35" edge="1">
          <mxGeometry width="50" height="50" relative="1" as="geometry">
            <mxPoint x="1670" y="821.25" as="sourcePoint" />
            <mxPoint x="1720" y="771.25" as="targetPoint" />
          </mxGeometry>
        </mxCell>
        <mxCell id="8jgLGCSMLhs6Hnrkkaej-52" value="" style="endArrow=classic;html=1;rounded=0;entryX=1;entryY=0.5;entryDx=0;entryDy=0;exitX=0;exitY=0.5;exitDx=0;exitDy=0;" parent="1" source="8jgLGCSMLhs6Hnrkkaej-35" target="8jgLGCSMLhs6Hnrkkaej-3" edge="1">
          <mxGeometry width="50" height="50" relative="1" as="geometry">
            <mxPoint x="1520" y="790" as="sourcePoint" />
            <mxPoint x="1570" y="740" as="targetPoint" />
          </mxGeometry>
        </mxCell>
        <mxCell id="8jgLGCSMLhs6Hnrkkaej-53" value="CheckModule" style="text;html=1;align=center;verticalAlign=middle;whiteSpace=wrap;rounded=0;" parent="1" vertex="1">
          <mxGeometry x="1636.5" y="675" width="60" height="30" as="geometry" />
        </mxCell>
        <mxCell id="8jgLGCSMLhs6Hnrkkaej-54" value="Delete" style="rounded=0;whiteSpace=wrap;html=1;" parent="1" vertex="1">
          <mxGeometry x="1415" y="860" width="50" height="30" as="geometry" />
        </mxCell>
        <mxCell id="8jgLGCSMLhs6Hnrkkaej-55" value="create new" style="rounded=0;whiteSpace=wrap;html=1;" parent="1" vertex="1">
          <mxGeometry x="1405" y="460" width="70" height="30" as="geometry" />
        </mxCell>
        <mxCell id="8jgLGCSMLhs6Hnrkkaej-56" value="" style="endArrow=classic;html=1;rounded=0;entryX=0.5;entryY=1;entryDx=0;entryDy=0;" parent="1" target="8jgLGCSMLhs6Hnrkkaej-55" edge="1">
          <mxGeometry width="50" height="50" relative="1" as="geometry">
            <mxPoint x="1440" y="600" as="sourcePoint" />
            <mxPoint x="1570" y="550" as="targetPoint" />
          </mxGeometry>
        </mxCell>
        <mxCell id="8jgLGCSMLhs6Hnrkkaej-57" value="" style="endArrow=classic;html=1;rounded=0;exitX=1;exitY=0.5;exitDx=0;exitDy=0;entryX=0.5;entryY=0;entryDx=0;entryDy=0;" parent="1" source="8jgLGCSMLhs6Hnrkkaej-55" target="8jgLGCSMLhs6Hnrkkaej-2" edge="1">
          <mxGeometry width="50" height="50" relative="1" as="geometry">
            <mxPoint x="1630" y="520" as="sourcePoint" />
            <mxPoint x="2090" y="480" as="targetPoint" />
            <Array as="points">
              <mxPoint x="2090" y="475" />
            </Array>
          </mxGeometry>
        </mxCell>
        <mxCell id="8jgLGCSMLhs6Hnrkkaej-58" value="" style="endArrow=classic;html=1;rounded=0;entryX=0.5;entryY=0;entryDx=0;entryDy=0;exitX=0.5;exitY=1;exitDx=0;exitDy=0;" parent="1" source="8jgLGCSMLhs6Hnrkkaej-3" target="8jgLGCSMLhs6Hnrkkaej-54" edge="1">
          <mxGeometry width="50" height="50" relative="1" as="geometry">
            <mxPoint x="1460" y="830" as="sourcePoint" />
            <mxPoint x="1460" y="720" as="targetPoint" />
          </mxGeometry>
        </mxCell>
        <mxCell id="8jgLGCSMLhs6Hnrkkaej-59" value="" style="endArrow=classic;html=1;rounded=0;exitX=1;exitY=0.5;exitDx=0;exitDy=0;entryX=0.25;entryY=1;entryDx=0;entryDy=0;" parent="1" source="8jgLGCSMLhs6Hnrkkaej-54" target="8jgLGCSMLhs6Hnrkkaej-1" edge="1">
          <mxGeometry width="50" height="50" relative="1" as="geometry">
            <mxPoint x="1640" y="820" as="sourcePoint" />
            <mxPoint x="1980" y="890" as="targetPoint" />
            <Array as="points">
              <mxPoint x="2060" y="880" />
            </Array>
          </mxGeometry>
        </mxCell>
        <mxCell id="8jgLGCSMLhs6Hnrkkaej-60" value="" style="endArrow=classic;html=1;rounded=0;exitX=1;exitY=0.5;exitDx=0;exitDy=0;entryX=0.25;entryY=0;entryDx=0;entryDy=0;" parent="1" source="8jgLGCSMLhs6Hnrkkaej-48" target="8jgLGCSMLhs6Hnrkkaej-43" edge="1">
          <mxGeometry width="50" height="50" relative="1" as="geometry">
            <mxPoint x="1760" y="610" as="sourcePoint" />
            <mxPoint x="1800" y="610" as="targetPoint" />
            <Array as="points">
              <mxPoint x="1751" y="610" />
            </Array>
          </mxGeometry>
        </mxCell>
        <mxCell id="8jgLGCSMLhs6Hnrkkaej-62" value="" style="endArrow=classic;startArrow=classic;html=1;rounded=0;exitX=0.75;exitY=1;exitDx=0;exitDy=0;entryX=0.5;entryY=0;entryDx=0;entryDy=0;" parent="1" source="8jgLGCSMLhs6Hnrkkaej-55" target="8jgLGCSMLhs6Hnrkkaej-43" edge="1">
          <mxGeometry width="50" height="50" relative="1" as="geometry">
            <mxPoint x="1530" y="550" as="sourcePoint" />
            <mxPoint x="1580" y="500" as="targetPoint" />
            <Array as="points">
              <mxPoint x="1458" y="520" />
              <mxPoint x="1770" y="520" />
            </Array>
          </mxGeometry>
        </mxCell>
        <mxCell id="6rJrBvvgWU3fh5acl5Ne-1" value="module" style="rounded=0;whiteSpace=wrap;html=1;" vertex="1" parent="1">
          <mxGeometry x="1450" y="1120" width="120" height="60" as="geometry" />
        </mxCell>
        <mxCell id="6rJrBvvgWU3fh5acl5Ne-2" value="other module" style="rounded=0;whiteSpace=wrap;html=1;" vertex="1" parent="1">
          <mxGeometry x="1450" y="1310" width="120" height="60" as="geometry" />
        </mxCell>
        <mxCell id="6rJrBvvgWU3fh5acl5Ne-3" value="" style="shape=flexArrow;endArrow=classic;html=1;rounded=0;exitX=0.5;exitY=1;exitDx=0;exitDy=0;entryX=0.5;entryY=0;entryDx=0;entryDy=0;" edge="1" parent="1" source="6rJrBvvgWU3fh5acl5Ne-1" target="6rJrBvvgWU3fh5acl5Ne-2">
          <mxGeometry width="50" height="50" relative="1" as="geometry">
            <mxPoint x="1520" y="1270" as="sourcePoint" />
            <mxPoint x="1570" y="1220" as="targetPoint" />
          </mxGeometry>
        </mxCell>
        <mxCell id="6rJrBvvgWU3fh5acl5Ne-4" value="" style="endArrow=classic;html=1;rounded=0;" edge="1" parent="1">
          <mxGeometry width="50" height="50" relative="1" as="geometry">
            <mxPoint x="1520" y="1240" as="sourcePoint" />
            <mxPoint x="1570" y="1240" as="targetPoint" />
          </mxGeometry>
        </mxCell>
        <mxCell id="6rJrBvvgWU3fh5acl5Ne-5" value="save" style="rounded=0;whiteSpace=wrap;html=1;" vertex="1" parent="1">
          <mxGeometry x="1570" y="1220" width="90" height="40" as="geometry" />
        </mxCell>
        <mxCell id="6rJrBvvgWU3fh5acl5Ne-6" value="None (New)" style="rounded=0;whiteSpace=wrap;html=1;" vertex="1" parent="1">
          <mxGeometry x="1740" y="1040" width="120" height="60" as="geometry" />
        </mxCell>
        <mxCell id="6rJrBvvgWU3fh5acl5Ne-7" value="Module" style="rounded=0;whiteSpace=wrap;html=1;" vertex="1" parent="1">
          <mxGeometry x="1740" y="1400" width="120" height="60" as="geometry" />
        </mxCell>
        <mxCell id="6rJrBvvgWU3fh5acl5Ne-14" style="edgeStyle=orthogonalEdgeStyle;rounded=0;orthogonalLoop=1;jettySize=auto;html=1;entryX=0.5;entryY=0;entryDx=0;entryDy=0;" edge="1" parent="1" source="6rJrBvvgWU3fh5acl5Ne-10" target="6rJrBvvgWU3fh5acl5Ne-13">
          <mxGeometry relative="1" as="geometry" />
        </mxCell>
        <mxCell id="6rJrBvvgWU3fh5acl5Ne-18" style="edgeStyle=orthogonalEdgeStyle;rounded=0;orthogonalLoop=1;jettySize=auto;html=1;entryX=0;entryY=0.5;entryDx=0;entryDy=0;" edge="1" parent="1" source="6rJrBvvgWU3fh5acl5Ne-10" target="6rJrBvvgWU3fh5acl5Ne-17">
          <mxGeometry relative="1" as="geometry" />
        </mxCell>
        <mxCell id="6rJrBvvgWU3fh5acl5Ne-10" value="save" style="rounded=0;whiteSpace=wrap;html=1;" vertex="1" parent="1">
          <mxGeometry x="1755" y="1160" width="90" height="40" as="geometry" />
        </mxCell>
        <mxCell id="6rJrBvvgWU3fh5acl5Ne-11" value="" style="shape=flexArrow;endArrow=classic;html=1;rounded=0;exitX=0.5;exitY=1;exitDx=0;exitDy=0;entryX=0.5;entryY=0;entryDx=0;entryDy=0;" edge="1" parent="1" source="6rJrBvvgWU3fh5acl5Ne-6" target="6rJrBvvgWU3fh5acl5Ne-10">
          <mxGeometry width="50" height="50" relative="1" as="geometry">
            <mxPoint x="1870" y="1450" as="sourcePoint" />
            <mxPoint x="1920" y="1400" as="targetPoint" />
          </mxGeometry>
        </mxCell>
        <mxCell id="6rJrBvvgWU3fh5acl5Ne-13" value="Change" style="rounded=0;whiteSpace=wrap;html=1;" vertex="1" parent="1">
          <mxGeometry x="1755" y="1250" width="90" height="40" as="geometry" />
        </mxCell>
        <mxCell id="6rJrBvvgWU3fh5acl5Ne-15" value="" style="shape=flexArrow;endArrow=classic;html=1;rounded=0;exitX=0.5;exitY=1;exitDx=0;exitDy=0;entryX=0.5;entryY=0;entryDx=0;entryDy=0;" edge="1" parent="1" source="6rJrBvvgWU3fh5acl5Ne-13" target="6rJrBvvgWU3fh5acl5Ne-7">
          <mxGeometry width="50" height="50" relative="1" as="geometry">
            <mxPoint x="1850" y="1390" as="sourcePoint" />
            <mxPoint x="1900" y="1340" as="targetPoint" />
          </mxGeometry>
        </mxCell>
        <mxCell id="6rJrBvvgWU3fh5acl5Ne-16" value="True" style="text;html=1;align=center;verticalAlign=middle;whiteSpace=wrap;rounded=0;" vertex="1" parent="1">
          <mxGeometry x="1790" y="1210" width="60" height="30" as="geometry" />
        </mxCell>
        <mxCell id="6rJrBvvgWU3fh5acl5Ne-20" style="edgeStyle=orthogonalEdgeStyle;rounded=0;orthogonalLoop=1;jettySize=auto;html=1;entryX=1;entryY=0.5;entryDx=0;entryDy=0;" edge="1" parent="1" source="6rJrBvvgWU3fh5acl5Ne-17" target="6rJrBvvgWU3fh5acl5Ne-6">
          <mxGeometry relative="1" as="geometry">
            <mxPoint x="1945" y="1070" as="targetPoint" />
            <Array as="points">
              <mxPoint x="1945" y="1070" />
            </Array>
          </mxGeometry>
        </mxCell>
        <mxCell id="6rJrBvvgWU3fh5acl5Ne-17" value="Warning" style="rounded=0;whiteSpace=wrap;html=1;" vertex="1" parent="1">
          <mxGeometry x="1900" y="1160" width="90" height="40" as="geometry" />
        </mxCell>
        <mxCell id="6rJrBvvgWU3fh5acl5Ne-19" value="False" style="text;html=1;align=center;verticalAlign=middle;whiteSpace=wrap;rounded=0;" vertex="1" parent="1">
          <mxGeometry x="1840" y="1150" width="60" height="30" as="geometry" />
        </mxCell>
        <mxCell id="6rJrBvvgWU3fh5acl5Ne-21" value="None (New)" style="rounded=0;whiteSpace=wrap;html=1;" vertex="1" parent="1">
          <mxGeometry x="2100" y="1280" width="120" height="60" as="geometry" />
        </mxCell>
        <mxCell id="6rJrBvvgWU3fh5acl5Ne-23" value="Module" style="rounded=0;whiteSpace=wrap;html=1;" vertex="1" parent="1">
          <mxGeometry x="2100" y="1080" width="120" height="60" as="geometry" />
        </mxCell>
      </root>
    </mxGraphModel>
  </diagram>
</mxfile>
